<?xml version="1.0" encoding="utf-8"?>
<svg fill="none" height="34" viewBox="0 0 30 34" width="30" xmlns="http://www.w3.org/2000/svg">
<path d="M15 13.2462V18.7103M15 24.1744H15.0125M12.8625 6.22492L2.27497 25.5404C2.05668 25.9535 1.94117 26.4219 1.93995 26.8989C1.93873 27.376 2.05183 27.8451 2.268 28.2595C2.48417 28.6739 2.79587 29.0193 3.1721 29.2612C3.54833 29.5032 3.97596 29.6332 4.41247 29.6385H25.5875C26.024 29.6332 26.4516 29.5032 26.8278 29.2612C27.2041 29.0193 27.5158 28.6739 27.7319 28.2595C27.9481 27.8451 28.0612 27.376 28.06 26.8989C28.0588 26.4219 27.9433 25.9535 27.725 25.5404L17.1375 6.22492C16.9146 5.82345 16.6009 5.49153 16.2265 5.26117C15.8521 5.03081 15.4296 4.90979 15 4.90979C14.5703 4.90979 14.1479 5.03081 13.7735 5.26117C13.3991 5.49153 13.0853 5.82345 12.8625 6.22492Z" stroke-linecap="round" stroke-linejoin="round" stroke-width="2"/>
</svg>