<svg width="24" height="27" viewBox="0 0 24 27" fill="none" xmlns="http://www.w3.org/2000/svg">
<g clip-path="url(#clip0_9_160)">
<path d="M9.09 9.89521C9.3251 9.16485 9.78915 8.54898 10.4 8.15669C11.0108 7.7644 11.7289 7.621 12.4272 7.75189C13.1255 7.88278 13.7588 8.27951 14.2151 8.87182C14.6713 9.46413 14.9211 10.2138 14.92 10.988C14.92 13.1737 11.92 14.2665 11.92 14.2665M12 18.6377H12.01M22 13.1737C22 19.2091 17.5228 24.1018 12 24.1018C6.47715 24.1018 2 19.2091 2 13.1737C2 7.13821 6.47715 2.24551 12 2.24551C17.5228 2.24551 22 7.13821 22 13.1737Z" stroke="#373737" stroke-width="2.5" stroke-linecap="round" stroke-linejoin="round"/>
</g>
<defs>
<clipPath id="clip0_9_160">
<rect width="24" height="26.2275" fill="white" transform="translate(0 0.0598755)"/>
</clipPath>
</defs>
</svg>
